<svg id="Layer_2" height="512" viewBox="0 0 24 24" width="512" xmlns="http://www.w3.org/2000/svg" xmlns:xlink="http://www.w3.org/1999/xlink" data-name="Layer 2"><linearGradient id="linear-gradient" gradientUnits="userSpaceOnUse" x1="21.64" x2="2.2" y1=".36" y2="23.84"><stop offset="0" stop-color="#f79e8d"/><stop offset="1" stop-color="#ef4885"/></linearGradient><g fill="url(#linear-gradient)"><path d="m12 1a11 11 0 1 0 11 11 11 11 0 0 0 -11-11zm0 20a9 9 0 1 1 9-9 9 9 0 0 1 -9 9z"/><path d="m16.24 7.76a1 1 0 0 0 -1.41 0l-2.83 2.83-2.83-2.83a1 1 0 0 0 -1.41 1.41l2.83 2.83-2.83 2.83a1 1 0 0 0 0 1.41 1 1 0 0 0 1.41 0l2.83-2.83 2.83 2.83a1 1 0 0 0 1.41 0 1 1 0 0 0 0-1.41l-2.83-2.83 2.83-2.83a1 1 0 0 0 0-1.41z"/></g></svg>